<?xml version="1.0" encoding="UTF-8" standalone="no"?>
<!DOCTYPE svg PUBLIC "-//W3C//DTD SVG 1.1//EN" "http://www.w3.org/Graphics/SVG/1.1/DTD/svg11.dtd">
<svg version="1.1" xmlns="http://www.w3.org/2000/svg" xmlns:xlink="http://www.w3.org/1999/xlink" preserveAspectRatio="xMidYMid meet" viewBox="0 0 640 640" width="640" height="640"><defs><path d="" id="fT2t3NnqT"></path><path d="M360 251.46L420 235.73C436.7 227.46 447.14 222.3 451.31 220.23C467.76 212.09 480.9 198.52 488.52 181.83C489.12 180.5 486.73 185.75 489.22 180.28C490.76 176.9 491.87 173.34 492.51 169.68C494 161.09 493.87 161.84 494.46 158.5C498.14 137.39 499.51 115.94 498.54 94.53C498.33 89.93 497.8 78.42 496.97 60C487.5 63.47 481.59 65.64 479.22 66.51C459.62 73.7 440.55 82.27 422.16 92.17C416 95.49 419.77 93.46 412.27 97.5C398.67 104.82 387.73 116.25 381.02 130.16C378.14 136.13 383.09 125.88 381.02 130.16C371.52 149.86 366 171.24 364.77 193.07C364.57 196.66 364.07 205.64 363.26 220" id="c5OWbDlna"></path><path d="" id="e35w1pD2ps"></path><path d="M363.03 216.18L360 251.01" id="c1AMpR4Nlw"></path><path d="M495.62 60L360 248.76" id="cf4KHPrnA"></path></defs><g><g><g><g><use xlink:href="#fT2t3NnqT" opacity="1" fill-opacity="0" stroke="#000000" stroke-width="1" stroke-opacity="1"></use></g></g><g><use xlink:href="#c5OWbDlna" opacity="1" fill="#1be0a6" fill-opacity="1"></use><g><use xlink:href="#c5OWbDlna" opacity="1" fill-opacity="0" stroke="#000000" stroke-width="1" stroke-opacity="1"></use></g></g><g><g><use xlink:href="#e35w1pD2ps" opacity="1" fill-opacity="0" stroke="#000000" stroke-width="1" stroke-opacity="1"></use></g></g><g><g><use xlink:href="#c1AMpR4Nlw" opacity="1" fill-opacity="0" stroke="#000000" stroke-width="1" stroke-opacity="1"></use></g></g><g><g><use xlink:href="#cf4KHPrnA" opacity="1" fill-opacity="0" stroke="#000000" stroke-width="1" stroke-opacity="1"></use></g></g></g></g></svg>