<?xml version="1.0" encoding="UTF-8" standalone="no"?>
<!DOCTYPE svg PUBLIC "-//W3C//DTD SVG 1.1//EN" "http://www.w3.org/Graphics/SVG/1.1/DTD/svg11.dtd">
<svg version="1.1" xmlns="http://www.w3.org/2000/svg" xmlns:xlink="http://www.w3.org/1999/xlink" preserveAspectRatio="xMidYMid meet" viewBox="0 0 640 640" width="640" height="640"><defs><path d="" id="fT2t3NnqT"></path><path d="M300 94.16C300 132.52 300 156.5 300 166.1C300 175.34 300.91 184.57 302.72 193.64C304.27 201.38 302.18 190.91 302.72 193.64C307.86 219.39 315.42 244.61 325.3 268.95C326.42 271.72 325.26 268.86 328.96 277.99C328.96 277.99 332.85 287.6 332.85 287.6C336.46 296.55 334.02 290.49 334.79 292.41C345.46 318.86 351.64 346.9 353.1 375.37C353.56 384.3 353.63 385.54 354.31 398.83C355.03 412.88 353.88 426.97 350.89 440.71C348.71 450.73 351.79 436.57 350.89 440.71C343.73 473.65 329.06 504.49 308.04 530.84C306.56 532.69 302.87 537.32 296.97 544.72C303.98 516.99 308.37 499.65 310.13 492.72C316.68 466.81 320 440.19 320 413.46C320 404.21 320 421.3 320 413.2C320 382.74 314.91 352.5 304.95 323.72C303.59 319.77 300.18 309.92 294.72 294.16C288.19 277.01 284.11 266.3 282.47 262.01C272.74 236.46 267.75 209.36 267.75 182.02C267.75 172.76 267.75 190.29 267.75 182.02C267.75 151.51 274.24 121.34 286.77 93.53C289.03 88.52 294.68 75.99 303.71 55.96L300 94.16Z" id="a99JP7bdkT"></path></defs><g><g><g><g><use xlink:href="#fT2t3NnqT" opacity="1" fill-opacity="0" stroke="#000000" stroke-width="1" stroke-opacity="1"></use></g></g><g><use xlink:href="#a99JP7bdkT" opacity="1" fill="#74c263" fill-opacity="1"></use><g><use xlink:href="#a99JP7bdkT" opacity="1" fill-opacity="0" stroke="#000000" stroke-width="1" stroke-opacity="1"></use></g></g></g></g></svg>